Chosen for their ability to kill without conscience, a group of killers, some trained and some who are not, must endeavour the alien race of predators that have set out to target them as prey. Dropped into the vast jungle of a distant world, these human predators must learn just who, or what, they are up against, and that their ability, knowledge and wits are tested to the limits in the battle of survival of kill or be killed. 


  
http://www.imdb.com/title/tt1424381/
MOVIEmeter: Up 250% in popularity this week
Genre:Action | Adventure | Sci-Fi | Thriller


 
Video
ID : 0
Format : MPEG-4 Visual
Format profile : Advanced Simple@L5
Format settings, BVOP : Yes
Format settings, QPel : Yes
Format settings, GMC : No warppoints
Format settings, Matrix : Default (MPEG)
Codec ID : XVID
Codec ID/Hint : XviD
Duration : 1h 42mn
Bit rate : 926 Kbps
Width : 720 pixels
Height : 304 pixels
Display aspect ratio : 2.35:1
Frame rate : 25.000 fps
Resolution : 8 bits
Colorimetry : 4:2:0
Scan type : Progressive
Bits/(Pixel*Frame) : 0.169
Stream size : 679 MiB (87%)
Writing library : XviD 1.2.1 (UTC 2008-12-04)

Audio
ID : 1
Format : MPEG Audio
Format version : Version 1
Format profile : Layer 3
Codec ID : 55
Codec ID/Hint : MP3
Duration : 1h 42mn
Bit rate mode : Constant
Bit rate : 128 Kbps
Channel(s) : 2 channels
Sampling rate : 44.1 KHz
Stream size : 93.9 MiB (12%)
Alignment : Split accross interleaves
Interleave, duration : 40 ms (1.00 video frame)
Interleave, preload duration : 500 ms

Work done:

Sorry we where a little late with our release and we know there is like 30 of them out there
lol.Thanks to our friends IMAGINE and PrisM.We also did our normal stuff to the video
we hope you all enjoy from team FLAWL3SS.







================================== 
http://thepiratebay.org/user/hiest
==================================







Screenshots:
 
http://img522.imageshack.us/img522/1917/67692851.png
 
http://img841.imageshack.us/img841/8696/90915372.png
 
http://img709.imageshack.us/img709/6750/59539341.png
 
http://img137.imageshack.us/img137/9103/30043802.png
 
http://img215.imageshack.us/img215/2489/45401354.png
 
http://img411.imageshack.us/img411/2466/32127684.png
